<svg width="133" height="24" xmlns="http://www.w3.org/2000/svg">

 <title/>
 <g id="imagebot_1">
  <g id="imagebot_2">
   <g id="imagebot_3">
    <g id="imagebot_4">
     <g id="imagebot_5">
      <g id="imagebot_6">
       <g id="imagebot_7">
        <g id="imagebot_8">
         <g id="imagebot_11">
          <g id="imagebot_12" isolation="isolate">
           <path id="imagebot_13" fill="#ffffff" d="M38.35,7.09A4,4 0 0 1 41.21,8A3.44,3.44 0 0 1 42.21,10.62L42.21,17.7C42.21,18.26 42.43,18.54 42.88,18.54L43.65,18.54L43.65,19.9A2.6,2.6 0 0 1 42.35,20.19A2,2 0 0 1 41,19.77A2.11,2.11 0 0 1 40.29,18.63L40.2,18.63A3.38,3.38 0 0 1 37.13,20.29A5.46,5.46 0 0 1 36.3,20.22A3.55,3.55 0 0 1 35.44,19.92A2.94,2.94 0 0 1 34.62,19.32A3,3 0 0 1 34,18.27A4.83,4.83 0 0 1 33.78,16.74A4.42,4.42 0 0 1 34.24,14.61A3.06,3.06 0 0 1 35.61,13.32A7,7 0 0 1 37.61,12.69A15.9,15.9 0 0 1 40.18,12.51L40.18,10.88A2.3,2.3 0 0 0 39.75,9.37A1.94,1.94 0 0 0 38.19,8.84A1.77,1.77 0 0 0 36.7,9.42A2.21,2.21 0 0 0 36.24,10.83L36.24,11.12L34.32,11.12A3.43,3.43 0 0 1 34.32,10.59A3.16,3.16 0 0 1 35.4,8A4.48,4.48 0 0 1 38.35,7.09zM40.2,15.42L40.2,14.26A8.12,8.12 0 0 0 36.96,14.76A1.84,1.84 0 0 0 35.88,16.62A2.1,2.1 0 0 0 36.3,18.09A1.68,1.68 0 0 0 37.58,18.54A2.48,2.48 0 0 0 39.41,17.71A3.17,3.17 0 0 0 40.2,15.42z"/>
           <path id="imagebot_14" fill="#ffffff" d="M47.26,18.54L47.14,18.54L46.87,20L45.38,20L45.38,2.65L47.38,2.65L47.38,8.58L47.5,8.58A2.33,2.33 0 0 1 48.5,7.48A3.45,3.45 0 0 1 50.16,7.09A3.11,3.11 0 0 1 52.88,8.74A9.33,9.33 0 0 1 53.88,13.66C53.88,18.08 52.57,20.29 49.97,20.29A2.94,2.94 0 0 1 47.26,18.54zM51.86,14.14L51.86,13.23A7.53,7.53 0 0 0 51.31,9.87A1.8,1.8 0 0 0 49.61,8.87Q47.34,8.87 47.35,13.36L47.35,14.17Q47.35,18.56 49.61,18.57A1.81,1.81 0 0 0 51.31,17.57A7.48,7.48 0 0 0 51.86,14.14z"/>
           <path id="imagebot_15" fill="#ffffff" d="M63.77,7.38L63.77,8.29L58.2,18.29L64.08,18.29L64.08,20L55.51,20L55.51,19.06L61.06,9.13L55.9,9.13L55.9,7.38L63.77,7.38z"/>
           <path id="imagebot_16" fill="#ffffff" d="M68.66,17.41L68.66,20L66.26,20L66.26,17.41L68.66,17.41z"/>
           <path id="imagebot_17" fill="#ffffff" d="M75.55,7.09A4,4 0 0 1 78.41,8A3.44,3.44 0 0 1 79.41,10.62L79.41,17.7C79.41,18.26 79.63,18.54 80.08,18.54L80.85,18.54L80.85,19.9A2.6,2.6 0 0 1 79.55,20.19A2,2 0 0 1 78.27,19.77A2.11,2.11 0 0 1 77.56,18.63L77.4,18.63A3.38,3.38 0 0 1 74.33,20.29A5.46,5.46 0 0 1 73.5,20.22A3.76,3.76 0 0 1 72.63,19.92A3,3 0 0 1 71.82,19.32A2.89,2.89 0 0 1 71.24,18.27A4.83,4.83 0 0 1 71,16.74A4.42,4.42 0 0 1 71.46,14.61A3,3 0 0 1 72.83,13.32A7,7 0 0 1 74.83,12.69A15.9,15.9 0 0 1 77.4,12.51L77.4,10.88A2.3,2.3 0 0 0 77,9.37A1.94,1.94 0 0 0 75.44,8.84A1.77,1.77 0 0 0 73.95,9.42A2.21,2.21 0 0 0 73.49,10.83L73.49,11.12L71.52,11.12A3.43,3.43 0 0 1 71.52,10.59A3.16,3.16 0 0 1 72.6,8A4.47,4.47 0 0 1 75.55,7.09zM77.4,15.42L77.4,14.26A8.12,8.12 0 0 0 74.16,14.76A1.84,1.84 0 0 0 73.08,16.62A2.1,2.1 0 0 0 73.5,18.09A1.68,1.68 0 0 0 74.78,18.54A2.48,2.48 0 0 0 76.61,17.71A3.22,3.22 0 0 0 77.4,15.42z"/>
           <path id="imagebot_18" fill="#ffffff" d="M89.88,5.34L91.61,5.34A3.33,3.33 0 0 1 91.04,7.34A2.52,2.52 0 0 1 89.5,8.36A4.13,4.13 0 0 1 90.62,11.36A4.26,4.26 0 0 1 89.53,14.44A3.94,3.94 0 0 1 86.59,15.6L85.27,15.6A1.1,1.1 0 0 0 84.46,15.93A1.1,1.1 0 0 0 84.46,17.52A1.07,1.07 0 0 0 85.27,17.86L88.87,17.86A2.83,2.83 0 0 1 91.03,18.71A3,3 0 0 1 91.85,20.81A3.58,3.58 0 0 1 90.85,23.38A3.63,3.63 0 0 1 88.12,24.38L84.58,24.38A3.06,3.06 0 0 1 82.27,23.53A3,3 0 0 1 81.46,21.38A3.11,3.11 0 0 1 81.9,19.71A2.35,2.35 0 0 1 83.09,18.71A2.1,2.1 0 0 1 82.09,16.81A2.28,2.28 0 0 1 83.87,14.63A4,4 0 0 1 82.41,11.37A4.25,4.25 0 0 1 83.51,8.25A4,4 0 0 1 86.51,7.12A3.8,3.8 0 0 1 88.33,7.57A2.87,2.87 0 0 0 89.88,5.34zM88.37,19.71L84.89,19.71A1.43,1.43 0 0 0 83.79,20.12A1.54,1.54 0 0 0 83.42,21.18A1.49,1.49 0 0 0 83.81,22.24A1.37,1.37 0 0 0 84.89,22.66L88.37,22.66A1.49,1.49 0 0 0 89.86,21.18A1.38,1.38 0 0 0 88.37,19.71zM88.07,9.39A2,2 0 0 0 86.47,8.72A1.87,1.87 0 0 0 84.89,9.42A3,3 0 0 0 84.33,11.34A3,3 0 0 0 84.89,13.28A1.9,1.9 0 0 0 86.47,13.95A2,2 0 0 0 88.07,13.26A3,3 0 0 0 88.63,11.34A3,3 0 0 0 88.07,9.39z"/>
           <path id="imagebot_19" fill="#ffffff" d="M97.85,7.09A3.63,3.63 0 0 1 101,8.49A7.85,7.85 0 0 1 102,13L102,14.24L95.16,14.24A6.2,6.2 0 0 0 95.84,17.48A2.29,2.29 0 0 0 97.92,18.48A1.88,1.88 0 0 0 99.47,17.71A3.33,3.33 0 0 0 100.05,15.64L102.05,15.64A4.74,4.74 0 0 1 100.91,18.99A3.86,3.86 0 0 1 97.91,20.23A4.23,4.23 0 0 1 94.32,18.66A8.45,8.45 0 0 1 93.13,13.66A8.51,8.51 0 0 1 94.31,8.66A4.12,4.12 0 0 1 97.85,7.09zM97.85,8.84A2.18,2.18 0 0 0 95.94,9.74A5.39,5.39 0 0 0 95.18,12.51L99.94,12.51C99.94,10.06 99.24,8.84 97.85,8.84z"/>
           <path id="imagebot_20" fill="#ffffff" d="M109.41,7.09C111.49,7.09 112.54,8.36 112.54,10.9L112.54,20L110.54,20L110.54,11.05A2.55,2.55 0 0 0 110.08,9.33A1.69,1.69 0 0 0 108.76,8.84A2,2 0 0 0 107.09,9.78A4.21,4.21 0 0 0 106.41,12.3L106.41,20L104.41,20L104.41,7.38L106,7.38L106.26,8.84L106.41,8.84A3.24,3.24 0 0 1 109.41,7.09z"/>
           <path id="imagebot_21" fill="#ffffff" d="M119.16,7.09A3.41,3.41 0 0 1 122.1,8.34A6.26,6.26 0 0 1 123.02,12.06L121.02,12.06A5.68,5.68 0 0 0 120.63,9.6A1.47,1.47 0 0 0 119.2,8.84Q116.94,8.84 116.94,13.23L116.94,14.14Q116.94,18.53 119.2,18.54A1.54,1.54 0 0 0 120.67,17.74A5,5 0 0 0 121.12,15.32L123,15.32A6.15,6.15 0 0 1 122,18.88A3.26,3.26 0 0 1 119.09,20.29A3.63,3.63 0 0 1 115.81,18.69A9.39,9.39 0 0 1 114.81,13.69A9.35,9.35 0 0 1 115.81,8.69A3.66,3.66 0 0 1 119.16,7.09z"/>
           <path id="imagebot_22" fill="#ffffff" d="M133.44,7.38L130.22,19.38A11.19,11.19 0 0 1 128.64,23A3,3 0 0 1 126.14,24.33A4.57,4.57 0 0 1 124.73,24.14L124.73,22.81L125.42,22.81C126.69,22.81 127.52,21.87 127.92,20L124.05,7.38L126.21,7.38L129,17.17L129.09,17.17L131.45,7.38L133.44,7.38z"/>
          </g>
         </g>
         <g id="imagebot_9">
          <path fill="#ffffff" d="M10.71,16.45L12.01,14.45L12.01,14.45L20.26,1.87L3.77,1.87L7.63,7.77L6.34,9.77L0,0L24,0L12,18.42L10.71,16.42L10.71,16.45zM13.29,7.56L11.99,9.56L11.99,9.56L3.74,22.13L20.23,22.13L16.37,16.23L17.66,14.23L24,24L0,24L12,5.59L13.29,7.59z" id="imagebot_10"/>
         </g>
        </g>
       </g>
      </g>
     </g>
    </g>
   </g>
  </g>
  <title>imagebot_1</title>
 </g>
</svg>